<svg width="100" height="33" viewBox="0 0 100 33" fill="none" xmlns="http://www.w3.org/2000/svg">
<g clip-path="url(#clip0_2_37)">
<path d="M88.2667 0.0133483L0.82666 0.0266621L0.879994 22.3733C0.879994 28.24 5.47999 33 11.24 33H88.3467L88.2667 0.0133483Z" fill="#BA151B"/>
<path d="M9.10666 14.0533H10.84C12.8667 14.0533 13.36 13.0933 13.36 12.0133C13.36 10.76 12.5867 9.8533 11.1733 9.8533H9.10666V14.0533ZM9.10666 8.82664H10.6667C12.32 8.82664 13.1333 8.04 13.1333 6.74666C13.1333 5.48 12.2267 4.78664 11.0933 4.78664H9.10666V8.82664ZM10.96 3.75998C12.8933 3.75998 14.16 4.66664 14.16 6.71997C14.16 7.91997 13.6267 8.73333 12.68 9.21333C13.92 9.82666 14.4933 10.6267 14.4933 12C14.4933 13.96 13.3333 15.0667 10.9333 15.0667H8.09332V3.75998H10.96Z" fill="white"/>
<path d="M10.6667 8.70665C12.28 8.69332 13.0133 7.97332 13.0267 6.74665C13.0267 5.53332 12.1867 4.90664 11.0933 4.8933H9.22666V8.70665H10.6667ZM9.10666 8.93331H8.98666V4.66664H11.08C11.6667 4.66664 12.2133 4.85331 12.6 5.19998C13 5.54664 13.24 6.07999 13.24 6.74665C13.24 7.41332 13.0267 7.97332 12.5867 8.34665C12.1467 8.73332 11.4933 8.93331 10.6533 8.93331H9.10666ZM10.84 13.9333C11.84 13.9333 12.44 13.6933 12.7867 13.3467C13.1333 13 13.2533 12.52 13.2533 12C13.24 10.8 12.5333 9.95997 11.1733 9.95997H9.22666V13.9333H10.84ZM10.84 14.16H8.99999V9.73331H11.1733C11.9067 9.73331 12.4933 9.97332 12.88 10.3733C13.28 10.7866 13.48 11.3466 13.48 12C13.48 12.56 13.3467 13.1066 12.9467 13.5066C12.5333 13.92 11.88 14.16 10.84 14.16ZM7.97333 15.1866V3.6533H10.96V3.87999H8.19999V14.96H10.92C12.1067 14.96 12.9733 14.6933 13.5333 14.1866C14.0933 13.6933 14.3733 12.96 14.3733 12C14.36 10.6666 13.84 9.91996 12.6267 9.31996L12.4267 9.21332L12.6267 9.10665C13.5467 8.63998 14.04 7.8933 14.0533 6.71996C14.0533 5.70663 13.7467 5.01332 13.2133 4.54665C12.68 4.09332 11.9067 3.86664 10.96 3.86664V3.74665V3.62664C11.9467 3.62664 12.7733 3.8533 13.36 4.35997C13.9467 4.86664 14.28 5.65331 14.28 6.70665C14.28 7.85332 13.8 8.6933 12.9333 9.18663C14.0667 9.79996 14.6267 10.64 14.6133 11.9733C14.6133 12.9733 14.32 13.7866 13.6933 14.32C13.08 14.8666 12.16 15.1466 10.9333 15.1466H7.97333V15.1866Z" fill="white"/>
<path d="M22.4933 8.28005C22.12 7.86671 21.4933 7.56003 20.7333 7.56003C18.7867 7.56003 17.3733 9.00002 17.3733 10.8534C17.3733 11.0667 17.3867 11.32 17.44 11.5334L22.4933 8.28005ZM17.6933 12.3867C18.0267 13.1467 19.0933 14.32 20.6267 14.32C21.8267 14.32 22.8667 13.6934 23.76 12.9467V14.1067C23.04 14.8267 21.72 15.28 20.6933 15.28C18.1333 15.28 16.4133 13.3467 16.4133 10.84C16.4133 8.33337 18.2533 6.60003 20.7333 6.60003C22.2533 6.60003 23.5067 7.57337 24 8.53337L17.6933 12.3867Z" fill="white"/>
<path d="M17.48 10.8534C17.48 11.0134 17.4933 11.1867 17.5066 11.3467L22.3066 8.26673C21.9466 7.9334 21.3866 7.68008 20.72 7.68008C18.84 7.66674 17.48 9.05338 17.48 10.8534ZM17.32 11.5467C17.2666 11.3201 17.2533 11.0667 17.2533 10.8401C17.2533 9.88007 17.6133 9.02674 18.24 8.41341C18.8533 7.80008 19.7333 7.42672 20.7333 7.42672C21.52 7.42672 22.1733 7.74672 22.5733 8.18672L22.6666 8.28007L17.36 11.6934L17.32 11.5467ZM20.7333 6.70674C18.32 6.70674 16.5333 8.38672 16.5333 10.8267C16.5333 13.2801 18.2133 15.1467 20.7066 15.1467C21.68 15.1467 22.96 14.7201 23.6533 14.0401V13.1734C22.8 13.8534 21.8 14.4134 20.64 14.4134C19.04 14.4134 17.9466 13.2134 17.6 12.4134L17.56 12.32L23.8533 8.46673C23.3333 7.60006 22.1466 6.70674 20.7333 6.70674ZM17.52 14.0667C16.7466 13.2534 16.3066 12.1067 16.3066 10.8267C16.3066 9.54672 16.7733 8.45339 17.5733 7.69339C18.36 6.92006 19.48 6.48008 20.7333 6.48008C22.2933 6.48008 23.5866 7.48006 24.0933 8.46673L24.1466 8.56006L17.8533 12.4134C18.2133 13.1334 19.2266 14.1867 20.64 14.1867C21.8 14.1867 22.8133 13.5734 23.6933 12.8401L23.88 12.6801V14.12L23.8533 14.1601C23.0933 14.9067 21.76 15.3601 20.7066 15.3601C19.3866 15.3867 18.2933 14.8934 17.52 14.0667Z" fill="white"/>
<path d="M26.9333 8.44006H26.96C27.56 7.02673 28.4933 6.60006 30.0267 6.60006L29.6133 7.5734C29.52 7.56006 29.36 7.56005 29.24 7.56005C28.2 7.56005 26.9333 8.84004 26.9333 10.92V15.0667L25.9733 15.2667V6.80006L26.9333 6.60006V8.44006Z" fill="white"/>
<path d="M26.08 6.89335V15.1334L26.8133 14.9867V10.92C26.8133 8.80001 28.1067 7.45336 29.24 7.44003C29.3333 7.44003 29.4533 7.44001 29.5467 7.45335L29.8533 6.72001C28.44 6.76001 27.6267 7.17335 27.0667 8.49335L27.04 8.56002H26.96H26.9333H26.8133V6.7467L26.08 6.89335ZM25.8533 6.7067L27.04 6.46669V8.01337C27.6533 6.8667 28.6267 6.48002 30.0267 6.49335H30.2L29.6933 7.7067L29.6 7.69335C29.52 7.68002 29.3733 7.68004 29.24 7.68004C28.7733 7.68004 28.2133 7.97336 27.7867 8.53336C27.36 9.09336 27.04 9.90668 27.04 10.92V15.16L25.8533 15.4V6.7067Z" fill="white"/>
<path d="M46.0267 8.28005C45.6533 7.86671 45.0267 7.56003 44.2667 7.56003C42.32 7.56003 40.9067 9.00002 40.9067 10.8534C40.9067 11.0667 40.92 11.32 40.9733 11.5334L46.0267 8.28005ZM41.2267 12.3867C41.56 13.1467 42.6267 14.32 44.16 14.32C45.36 14.32 46.4 13.6934 47.2933 12.9467V14.1067C46.5733 14.8267 45.2533 15.28 44.2267 15.28C41.6667 15.28 39.9467 13.3467 39.9467 10.84C39.9467 8.33337 41.7867 6.60003 44.2667 6.60003C45.7867 6.60003 47.04 7.57337 47.5333 8.53337L41.2267 12.3867Z" fill="white"/>
<path d="M41.0133 10.8534C41.0133 11.0134 41.0267 11.1867 41.0533 11.3467L45.8533 8.26673C45.4933 7.9334 44.9333 7.68008 44.2667 7.68008C42.3733 7.66674 41.0133 9.05338 41.0133 10.8534ZM40.8533 11.5467C40.8 11.3201 40.7867 11.0667 40.7867 10.8401C40.7867 9.88007 41.16 9.02674 41.7733 8.41341C42.3867 7.80008 43.2667 7.42672 44.2667 7.42672C45.0533 7.42672 45.7067 7.74672 46.12 8.18672L46.2133 8.28007L40.9067 11.6934L40.8533 11.5467ZM44.2667 6.70674C41.8533 6.70674 40.0667 8.38672 40.0667 10.8267C40.0667 13.2801 41.7467 15.1467 44.24 15.1467C45.2133 15.1467 46.4933 14.7201 47.1867 14.0401V13.1734C46.3333 13.8534 45.3333 14.4134 44.1733 14.4134C42.5733 14.4134 41.48 13.2134 41.1333 12.4134L41.0933 12.32L47.3867 8.46673C46.8667 7.60006 45.68 6.70674 44.2667 6.70674ZM41.0533 14.0667C40.28 13.2534 39.84 12.1067 39.84 10.8267C39.84 9.54672 40.3067 8.45339 41.1067 7.69339C41.8933 6.92006 43.0133 6.48008 44.2667 6.48008C45.84 6.48008 47.12 7.48006 47.6267 8.46673L47.68 8.56006L41.3867 12.4134C41.7467 13.1334 42.76 14.1867 44.1733 14.1867C45.3333 14.1867 46.3467 13.5734 47.2267 12.8401L47.4133 12.6801V14.12L47.3867 14.1601C46.6267 14.9067 45.2933 15.3601 44.24 15.3601C42.92 15.3867 41.8133 14.8934 41.0533 14.0667Z" fill="white"/>
<path d="M50.4533 8.44006H50.48C51.0666 7.02673 52.0133 6.60006 53.5466 6.60006L53.1333 7.5734C53.0266 7.56006 52.88 7.56005 52.76 7.56005C51.72 7.56005 50.4533 8.84004 50.4533 10.92V15.0667L49.4933 15.2667V6.80006L50.4533 6.60006V8.44006Z" fill="white"/>
<path d="M49.6133 6.89335V15.1334L50.3467 14.9867V10.92C50.3467 8.80001 51.64 7.45336 52.76 7.44003C52.8667 7.44003 52.9733 7.44001 53.0667 7.45335L53.3733 6.72001C51.96 6.76001 51.1467 7.17335 50.5867 8.49335L50.56 8.56002H50.48H50.4533H50.3333V6.7467L49.6133 6.89335ZM49.3867 6.7067L50.5733 6.46669V8.01337C51.1867 6.8667 52.16 6.48002 53.56 6.49335H53.7333L53.2133 7.7067L53.12 7.69335C53.04 7.68002 52.8933 7.68004 52.76 7.68004C52.2933 7.68004 51.7333 7.97336 51.3067 8.53336C50.88 9.09336 50.56 9.90668 50.56 10.92V15.16L49.3733 15.4L49.3867 6.7067Z" fill="white"/>
<path d="M8.02667 26.4934V16.9067L9.05334 16.8534V25.48H13.1733L12.8667 26.5067H8.02667" fill="white"/>
<path d="M12.7733 26.3867L13.0133 25.5867H8.93334V16.96L8.13334 17V26.3734H12.7733V26.3867ZM8.02668 26.6134H7.90668V16.8L9.16001 16.7334V25.3734H13.32L12.9333 26.6267H8.02668V26.6134Z" fill="white"/>
<path d="M20.4933 19.7067C20.12 19.2933 19.4933 18.9867 18.7333 18.9867C16.7866 18.9867 15.3733 20.4267 15.3733 22.28C15.3733 22.4933 15.3866 22.7467 15.44 22.96L20.4933 19.7067ZM15.7066 23.8133C16.04 24.5733 17.1066 25.7467 18.64 25.7467C19.84 25.7467 20.88 25.12 21.7733 24.3733V25.5333C21.0533 26.2533 19.7333 26.7067 18.7066 26.7067C16.1466 26.7067 14.4266 24.7733 14.4266 22.2667C14.4266 19.76 16.2666 18.0267 18.7466 18.0267C20.2666 18.0267 21.52 19 22.0133 19.96L15.7066 23.8133Z" fill="white"/>
<path d="M15.4933 22.28C15.4933 22.44 15.5066 22.6134 15.52 22.7734L20.32 19.6934C19.96 19.3467 19.4 19.1067 18.7333 19.1067C16.8533 19.0934 15.4933 20.48 15.4933 22.28ZM15.3333 22.9867C15.28 22.76 15.2666 22.5067 15.2666 22.28C15.2666 21.32 15.6266 20.4667 16.2533 19.8534C16.8666 19.24 17.7466 18.8667 18.7466 18.8667C19.5333 18.8667 20.1866 19.1867 20.6 19.6267L20.6933 19.72L15.3866 23.1334C15.36 23.1334 15.3333 22.9867 15.3333 22.9867ZM18.7333 18.1467C16.32 18.1467 14.5333 19.8267 14.5333 22.2667C14.5333 24.72 16.2133 26.5867 18.7066 26.5867C19.68 26.5867 20.96 26.16 21.6533 25.48V24.6134C20.8 25.2934 19.8 25.8534 18.64 25.8534C17.04 25.8534 15.9466 24.6534 15.6 23.8534L15.56 23.76L21.8533 19.9067C21.3466 19.0267 20.16 18.1467 18.7333 18.1467ZM15.52 25.4934C14.7466 24.68 14.3066 23.5334 14.3066 22.2534C14.3066 20.9734 14.7866 19.88 15.5733 19.12C16.36 18.3467 17.48 17.9067 18.7333 17.9067C20.3066 17.9067 21.5866 18.9067 22.0933 19.8934L22.1466 19.9867L15.8533 23.84C16.2133 24.56 17.2266 25.6134 18.64 25.6134C19.8 25.6134 20.8133 25 21.6933 24.2667L21.88 24.1067V25.5467L21.8533 25.5734C21.0933 26.3334 19.76 26.7734 18.7066 26.7734C17.4 26.8134 16.2933 26.32 15.52 25.4934Z" fill="white"/>
<path d="M26.76 24.3867L29.7466 18.0267L30.7733 18.2267L26.7866 26.6934H26.76L22.7733 18.2267L23.6933 18.0267L26.76 24.3867Z" fill="white"/>
<path d="M22.92 18.3067L26.76 26.4667L30.6 18.3067L29.8133 18.1467L26.8667 24.4267L26.76 24.64L23.6133 18.1467C23.6133 18.16 22.92 18.3067 22.92 18.3067ZM26.7733 26.8134H26.6667L22.5867 18.1467L23.7333 17.8934L26.7467 24.12L29.6667 17.8934L30.92 18.1334L26.84 26.8H26.7733V26.8134Z" fill="white"/>
<path d="M31.9067 9.68004C31.9067 8.29337 33.1733 7.49335 34.4133 7.49335C35.6533 7.49335 36.9333 8.3067 36.9333 9.68004C36.9333 11.0267 35.6133 11.7867 34.4 11.7867C33.1333 11.7867 31.9067 11.0267 31.9067 9.68004ZM36.0933 12.2C37.1333 11.7867 37.8933 10.8 37.8933 9.66669C37.8933 8.69336 37.3467 7.97334 36.64 7.38668L36.6667 7.36002C36.8133 7.38668 36.96 7.41337 37.1067 7.41337C37.3867 7.41337 37.5733 7.38668 37.8267 7.29335L38.1067 6.32001C37.2133 6.50668 36.3067 6.62668 35.3867 6.62668C35.0533 6.62668 34.7067 6.60002 34.3867 6.60002C32.52 6.60002 30.9467 7.76002 30.9467 9.73336C30.9467 10.6934 31.6933 11.6934 32.5467 12.0667L32.2 13.16C32.9467 12.88 33.5733 12.68 34.36 12.68C35.68 12.68 37.0267 13.6534 37.0267 15.0667C37.0267 15.8667 36.64 16.4 35.8533 16.7467C35.7467 16.7867 35.28 16.9867 35.2667 17C34.36 17.36 33.6933 17.7334 33.1067 18.52H33.0667V16.7467L32.1067 16.68L32.1333 26.8134L33.0933 26.6134L33.0667 21.5334C33.0667 19.5334 34.1333 18.5867 35.36 17.9334C35.52 17.8534 35.8 17.7467 36.0667 17.6267C36.3333 17.5067 37.9867 17.0267 37.9867 14.9467C37.9867 13.64 37.2267 12.7334 36.0933 12.2Z" fill="white"/>
<path d="M32.0133 9.68008C32.0133 10.3201 32.3067 10.8134 32.7467 11.1467C33.1867 11.4934 33.7867 11.6667 34.3867 11.6667C34.9733 11.6667 35.5867 11.4801 36.04 11.1467C36.4933 10.8001 36.8 10.3201 36.8 9.68008C36.8 9.02675 36.4933 8.50673 36.04 8.16006C35.5867 7.80006 34.9733 7.61341 34.3867 7.61341C33.7867 7.61341 33.1867 7.81339 32.7467 8.16006C32.32 8.52006 32.0133 9.02675 32.0133 9.68008ZM32.6133 11.3334C32.12 10.9601 31.8 10.3867 31.8 9.68008C31.8 8.21341 33.1333 7.37341 34.4133 7.37341C35.6933 7.37341 37.04 8.21341 37.0533 9.68008C37.0533 11.1201 35.6667 11.9067 34.4 11.9067C33.7467 11.9067 33.0933 11.7067 32.6133 11.3334ZM32.2533 26.6534L32.9867 26.5067L32.96 21.5067C32.96 19.4534 34.0667 18.4534 35.3067 17.8134C35.4667 17.7334 35.76 17.6134 36.0133 17.5067C36.2933 17.3734 37.8667 16.9334 37.8667 14.9334C37.8667 13.6801 37.1467 12.8134 36.04 12.3067L35.8 12.2001L36.04 12.1067C37.04 11.7067 37.76 10.7601 37.76 9.68008C37.76 8.74675 37.24 8.06673 36.5467 7.49339L36.4533 7.41341L36.5467 7.32005L36.6267 7.24007L36.6933 7.25339C36.84 7.28005 36.9733 7.30674 37.12 7.30674C37.3733 7.30674 37.52 7.28008 37.7467 7.21341L37.96 6.48008C37.12 6.64008 36.2667 6.76006 35.4 6.76006C35.0667 6.76006 34.72 6.7334 34.4 6.7334C32.5867 6.7334 31.0667 7.84008 31.0667 9.74675C31.0667 10.6401 31.7867 11.6267 32.6 11.9867L32.6933 12.0267L32.3867 12.9867C33.04 12.7467 33.64 12.5867 34.36 12.5867C35.7333 12.5867 37.1333 13.5867 37.1467 15.0934C37.1467 15.9334 36.72 16.5201 35.9067 16.8801C35.8533 16.8934 35.72 16.9601 35.5867 17.0134C35.5067 17.0534 35.44 17.0801 35.3867 17.0934L35.32 17.1201C34.4267 17.4801 33.7867 17.8401 33.2 18.6001L33.16 18.6401H33.1067H32.96V16.8667L32.2267 16.8134L32.2533 26.6534ZM32 16.5467L33.1867 16.6401V18.2401C33.7333 17.6001 34.36 17.2401 35.16 16.9334V16.9201L35.24 16.8934C35.24 16.8934 35.2533 16.8934 35.2533 16.8801C35.2667 16.8801 35.2933 16.8667 35.3067 16.8534C35.36 16.8267 35.4133 16.8001 35.48 16.7734C35.6133 16.7201 35.7467 16.6534 35.8133 16.6401C36.5733 16.2934 36.9067 15.8401 36.92 15.0667C36.92 14.4001 36.6 13.8267 36.12 13.4267C35.64 13.0267 35 12.7867 34.36 12.7867C33.5867 12.7867 32.9867 12.9734 32.24 13.2534L32.0267 13.3334L32.4133 12.1201C31.56 11.6934 30.84 10.6934 30.84 9.72005C30.84 8.70672 31.2533 7.88005 31.9067 7.32005C32.56 6.76005 33.44 6.46673 34.4 6.46673C34.7333 6.46673 35.08 6.50673 35.4 6.49339C36.32 6.49339 37.2133 6.36005 38.0933 6.18672L38.28 6.14675L37.9333 7.36006L37.88 7.37341C37.6133 7.45341 37.4133 7.49339 37.12 7.49339C37.0667 7.49339 37.0133 7.49339 36.96 7.49339C37.56 8.05339 38.0133 8.74674 38.0133 9.64007C38.0133 10.7467 37.3333 11.7067 36.3733 12.1867C37.4133 12.7334 38.12 13.6534 38.12 14.9201C38.12 17.0667 36.3867 17.6001 36.1333 17.6934C35.8667 17.8134 35.5867 17.9201 35.44 18.0001C34.2267 18.6401 33.2133 19.5334 33.2133 21.4934L33.24 26.6667L32.0533 26.9067L32 16.5467Z" fill="white"/>
<path d="M40.12 25.7467C41.2933 25.7467 42.12 24.8667 42.12 23.7067C42.12 22.48 41.28 21.64 40.0933 21.64C38.8267 21.64 37.8667 22.4934 37.8667 23.8134C37.8667 25.0267 39.0266 25.7467 40.12 25.7467ZM38.08 18.52C38.84 18.2134 39.6667 18.0267 40.4933 18.0267C41.7733 18.0267 43.08 18.7067 43.08 20.12V26.4934L42.12 26.6934V25.6534H42.0933C41.76 26.2667 41.04 26.6934 40.0667 26.6934C38.3733 26.6934 36.92 25.6 36.92 23.8134C36.92 21.9867 38.12 20.68 39.9467 20.68C40.7733 20.68 41.56 21.1467 42.12 21.64V20.2534C42.12 19.56 41.28 18.9867 40.1733 18.9867C39.3866 18.9867 38.4933 19.4 37.76 19.64L38.08 18.52Z" fill="white"/>
<path d="M40.12 25.8534V25.6267C41.2267 25.6267 42 24.8134 42 23.6934C42 22.52 41.2133 21.7467 40.0933 21.7467C38.88 21.7467 37.9867 22.5467 37.9867 23.8134C37.9867 24.3867 38.2533 24.8267 38.6533 25.1467C39.0533 25.4534 39.6 25.6267 40.1333 25.6267V25.7467L40.12 25.8534C38.9733 25.8534 37.7467 25.1067 37.7467 23.8134C37.7467 23.12 38 22.5467 38.4133 22.1467C38.84 21.7467 39.4267 21.52 40.08 21.52C40.6933 21.52 41.24 21.7467 41.6133 22.12C42 22.5067 42.2133 23.0534 42.2133 23.6934C42.2133 24.3067 42 24.84 41.6267 25.2267C41.2667 25.6267 40.7333 25.8534 40.12 25.8534ZM39.9467 20.8C38.1733 20.8 37.04 22.04 37.0267 23.8134C37.0267 25.5467 38.4133 26.5734 40.0667 26.5867C41 26.5867 41.6933 26.1734 42 25.6134L42.0267 25.56H42.0933H42.24V26.5734L42.9733 26.4267V20.1467C42.9733 19.48 42.6667 18.9867 42.2133 18.6667C41.7467 18.3334 41.12 18.1734 40.5067 18.1734C39.72 18.1734 38.92 18.3467 38.2 18.64L37.96 19.4934C38.64 19.2534 39.44 18.9067 40.2 18.8934C41.3333 18.8934 42.24 19.48 42.2533 20.28V21.92L42.0667 21.76C41.4933 21.24 40.7333 20.8 39.9467 20.8ZM42 25.9867C41.6 26.4934 40.9067 26.8134 40.0533 26.8134C39.1867 26.8134 38.36 26.5334 37.7733 26.0134C37.1733 25.4934 36.8 24.7467 36.8 23.8134C36.8 22.88 37.1067 22.0667 37.6667 21.48C38.2133 20.9067 39.0133 20.56 39.9467 20.56C40.72 20.56 41.4533 20.9467 42.0133 21.3867V20.24C42.0133 19.9467 41.8267 19.6534 41.5067 19.44C41.1867 19.2267 40.72 19.08 40.1867 19.08C39.4267 19.08 38.5467 19.48 37.8133 19.7334L37.6133 19.8L37.9867 18.4667L38 18.4134L38.0533 18.3867C38.8267 18.0667 39.6667 17.88 40.5067 17.88C41.1733 17.88 41.84 18.0534 42.3467 18.4134C42.8533 18.7734 43.2133 19.3334 43.2 20.08V26.5467L42.0133 26.7867L42 25.9867Z" fill="white"/>
<path d="M46.64 18.0267V23.5201C46.64 25.0001 47.2267 25.8401 48.6533 25.8401C50.2 25.8401 51.1867 25.2801 51.1867 21.9467V18.2267L52.1467 18.0267V26.4934L51.1867 26.6267V25.2534H51.16C50.8267 25.9867 49.84 26.6801 48.5733 26.6801C46.48 26.6801 45.6933 25.4934 45.6933 23.6134V18.2134L46.64 18.0267Z" fill="white"/>
<path d="M45.7867 18.32V23.6267C45.7867 24.5467 45.9867 25.2933 46.4133 25.7867C46.8533 26.2933 47.5333 26.5733 48.56 26.5733C49.7867 26.5733 50.7333 25.8933 51.04 25.2133L51.0667 25.1467H51.1467H51.2933V26.4933L52.0267 26.3867V18.16L51.2933 18.3067V21.9333C51.2933 23.6133 51.0533 24.6 50.5867 25.2C50.12 25.8 49.4267 25.9467 48.6533 25.9333C47.92 25.9333 47.3733 25.7067 47.0267 25.28C46.68 24.8533 46.5333 24.24 46.5333 23.4933V18.1467L45.7867 18.32ZM46.2533 25.9467C45.7733 25.3867 45.5733 24.5867 45.5733 23.64V18.1467L46.6133 17.9333L46.7467 17.9067V23.5333C46.7467 24.2667 46.8933 24.8133 47.2 25.1733C47.5067 25.5333 47.96 25.7333 48.6533 25.7333C49.4133 25.7333 50 25.6 50.4133 25.08C50.8267 24.56 51.08 23.6133 51.08 21.96V18.1467L52.2667 17.9067V26.6L51.08 26.76V25.6267C50.6267 26.28 49.7067 26.8 48.5733 26.8C47.4933 26.8133 46.7333 26.5067 46.2533 25.9467Z" fill="white"/>
<path d="M56.16 26.4934L55.2 26.6934V14.76L56.16 14.56V26.4934Z" fill="white"/>
<path d="M55.32 14.8533V26.5467L56.0533 26.4V14.7067L55.32 14.8533ZM55.0933 14.6667L56.28 14.4267V26.5867L55.0933 26.8267V14.6667Z" fill="white"/>
<path d="M59.52 16.2L60.48 15.6667V18.2267H62.72V19.1867H60.48V24.2933C60.48 25.2933 60.9067 25.68 61.96 25.68C62.2267 25.68 62.4667 25.68 62.7333 25.6533V26.5467C62.4667 26.6 62.1733 26.64 61.88 26.64C60.36 26.64 59.52 25.76 59.52 24.28V19.1867H58.4133L58.64 18.2267H59.5067L59.52 16.2Z" fill="white"/>
<path d="M58.56 19.0667H59.64V24.28C59.6533 25.72 60.4133 26.5067 61.88 26.52C62.1333 26.52 62.3867 26.48 62.6267 26.44V25.7734C62.4 25.8 62.1867 25.8 61.9733 25.8C61.44 25.8 61.0267 25.7067 60.76 25.4534C60.4933 25.2 60.3733 24.8134 60.3733 24.3067V19.08H62.6133V18.3467H60.3733V15.8667L59.64 16.2667V18.3333H58.7467C58.7333 18.3333 58.56 19.0667 58.56 19.0667ZM60.0533 26.0933C59.6267 25.6667 59.4133 25.04 59.4133 24.28V19.2933H58.2667L58.5467 18.1067H59.4V16.1867V16.12L60.5867 15.4667V18.1067H62.8267V19.2933H60.5867V24.2933C60.5867 24.7867 60.6933 25.0933 60.8933 25.28C61.0933 25.4667 61.44 25.56 61.9467 25.56C62.2133 25.56 62.4533 25.56 62.7067 25.5333L62.84 25.52V26.64L62.7467 26.6534C62.48 26.7067 62.1733 26.76 61.8667 26.76C61.0933 26.7467 60.48 26.52 60.0533 26.0933Z" fill="white"/>
<path d="M98.92 7.40003L99.1466 8.92002L99.1733 24.6934L66.64 24.64L66.6533 0.0400405L89.2133 3.40239e-05L90.9867 7.20003L98.92 7.40003Z" fill="#BA151B"/>
<path d="M99.1467 19.8534V8.60006C99.1467 3.77339 96.0133 5.81495e-05 90.5733 5.81495e-05H89.1467L89.1733 19.8534H99.1467Z" fill="#5F080B"/>
<path d="M99.16 22.3334L86.32 22.36L86.28 2.63802e-05H82.2C82.68 0.880026 82.8267 2.24004 82.8267 3.88004C82.8267 6.52004 82.2933 8.3067 79.6667 9.17337V9.24003C83.0267 9.84003 83.56 12.2534 83.56 15.3734C83.56 19.8934 81.88 22.3734 77.6133 22.3734H66.5867V24.2934C66.5867 29.1067 70.52 32.9867 75.3467 32.9867H99.1333L99.16 22.3334Z" fill="#5F080B"/>
<path d="M66.64 0.013298L66.6133 8.19995H75.3866C78.8133 8.19995 79.9866 7.42662 79.9866 3.50662C79.9866 0.973291 79.28 0.106631 77.8666 0.013298H66.64Z" fill="#5F080B"/>
<path d="M80.72 15.64C80.72 12.32 80.2133 10.6534 76.4533 10.72H66.6133V19.8667H76.12C79.2133 19.8534 80.72 19.4934 80.72 15.64Z" fill="#5F080B"/>
</g>
<defs>
<clipPath id="clip0_2_37">
<rect width="100" height="33" fill="white"/>
</clipPath>
</defs>
</svg>
